<?xml version="1.0" encoding="utf-8"?>
<!-- Generator: Adobe Illustrator 21.0.0, SVG Export Plug-In . SVG Version: 6.00 Build 0)  -->
<svg version="1.1" xmlns="http://www.w3.org/2000/svg" xmlns:xlink="http://www.w3.org/1999/xlink" x="0px" y="0px"
	 viewBox="0 0 20 20" style="enable-background:new 0 0 20 20;" xml:space="preserve">
<style type="text/css">
	.st0{display:none;}
	.st1{display:inline;fill:none;stroke:#E74739;stroke-width:2.5;}
	.st2{display:inline;}
	.st3{clip-path:url(#SVGID_2_);fill:none;stroke:#3896EE;stroke-width:2.5;}
	.st4{clip-path:url(#SVGID_4_);fill:none;stroke:#25C7D4;stroke-width:2.5;}
	.st5{clip-path:url(#SVGID_6_);fill:#2B2E37;stroke:#2B2E37;stroke-width:0.5;}
</style>
<g id="Calque_1" class="st0">
	<circle class="st1" cx="10.1" cy="10" r="8"/>
</g>
<g id="Calque_2" class="st0">
	<g class="st2">
		<defs>
			<rect id="SVGID_1_" x="0.2" y="2.4" width="20" height="17.3"/>
		</defs>
		<clipPath id="SVGID_2_">
			<use xlink:href="#SVGID_1_"  style="overflow:visible;"/>
		</clipPath>
		<polygon class="st3" points="9.9,16.2 17.3,3.3 2.4,3.3 		"/>
	</g>
</g>
<g id="Calque_3" class="st0">
	<g class="st2">
		<defs>
			<rect id="SVGID_3_" x="1.4" y="1.9" width="16.9" height="16.6"/>
		</defs>
		<clipPath id="SVGID_4_">
			<use xlink:href="#SVGID_3_"  style="overflow:visible;"/>
		</clipPath>
		<rect x="2.6" y="3.2" class="st4" width="14.4" height="14.1"/>
	</g>
</g>
<g id="Calque_4">
	<g>
		<defs>
			<rect id="SVGID_5_" x="1.3" y="1" width="17.6" height="18.4"/>
		</defs>
		<clipPath id="SVGID_6_">
			<use xlink:href="#SVGID_5_"  style="overflow:visible;"/>
		</clipPath>
		<path class="st5" d="M17.3,17.6c0-0.1,0-0.2,0-0.2c0-3.1,0-6.1,0-9.2c0-0.1-0.1-0.3-0.2-0.3c-2.3-1.7-4.5-3.4-6.8-5.1
			c-0.2-0.1-0.3-0.1-0.4,0C7.6,4.5,5.4,6.2,3.1,7.9C3,8,2.9,8.1,2.9,8.3c0,3,0,6,0,9v0.3H17.3z M10.1,18.8c-2.5,0-5.1,0-7.6,0
			c-0.5,0-0.8-0.2-0.8-0.7c0-3.4,0-6.8,0-10.2c0-0.3,0.1-0.5,0.4-0.7c2.5-1.9,5-3.7,7.5-5.6c0.4-0.3,0.6-0.3,1.1,0
			c2.5,1.9,5,3.7,7.5,5.6c0.2,0.2,0.4,0.4,0.4,0.7c0,3.4,0,6.8,0,10.2c0,0.5-0.2,0.7-0.7,0.7C15.2,18.8,12.6,18.8,10.1,18.8"/>
	</g>
</g>
</svg>
